<?xml version="1.0" encoding="UTF-8" standalone="no"?>
<!DOCTYPE svg PUBLIC "-//W3C//DTD SVG 1.1//EN" "http://www.w3.org/Graphics/SVG/1.1/DTD/svg11.dtd">
<svg width="100%" height="100%" viewBox="0 0 20 23" version="1.1" xmlns="http://www.w3.org/2000/svg" xmlns:xlink="http://www.w3.org/1999/xlink" xml:space="preserve" xmlns:serif="http://www.serif.com/" style="fill-rule:evenodd;clip-rule:evenodd;stroke-linejoin:round;stroke-miterlimit:2;">
    <g transform="matrix(0.075188,0,0,0.0737179,0,0)">
        <path d="M128.664,79.279C128.664,80.279 127.664,80.279 127.664,80.279L126.664,80.279C125.664,80.279 125.664,79.279 124.664,78.279C124.664,78.279 123.664,77.279 123.664,76.279C123.664,75.279 123.664,75.279 124.664,75.279L126.664,76.279C127.664,77.279 128.664,78.279 128.664,79.279M110.664,69.279C110.664,64.279 108.664,61.279 105.664,61.279C105.664,61.279 105.664,62.279 104.664,62.279L104.664,64.279L107.664,64.279C107.664,66.279 108.664,67.279 108.664,69.279L110.664,69.279M145.664,64.279C147.664,64.279 148.664,66.279 149.664,69.279L151.664,69.279C150.664,68.279 150.664,67.279 150.664,66.279C150.664,65.279 150.664,64.279 149.664,63.279C148.664,62.279 147.664,61.279 146.664,61.279C146.664,61.279 145.664,62.279 144.664,62.279C144.664,63.279 145.664,63.279 145.664,64.279M115.664,80.279C114.664,80.279 114.664,80.279 114.664,79.279C114.664,78.279 114.664,77.279 115.664,76.279C117.664,76.279 118.664,75.279 118.664,75.279C119.664,75.279 119.664,76.279 119.664,76.279C119.664,77.279 118.664,78.279 116.664,80.279L115.664,80.279M104.664,79.279C100.664,77.279 99.664,74.279 99.664,69.279C99.664,66.279 99.664,64.279 101.664,62.279C102.664,60.279 104.664,59.279 106.664,59.279C108.664,59.279 109.664,60.279 111.664,62.279C112.664,65.279 113.664,68.279 113.664,71.279L113.664,73.279L114.664,73.279L114.664,72.279C115.664,72.279 115.664,70.279 115.664,66.279C115.664,63.279 115.664,60.279 113.664,57.279C111.664,54.279 109.664,52.279 105.664,52.279C102.664,52.279 99.664,54.279 98.664,57.279C96.664,61.279 96.264,64.279 96.264,69.279C96.264,73.279 97.664,77.279 101.664,81.279C102.664,80.279 103.664,80.279 104.664,79.279M229.664,220.279C230.664,220.279 230.664,219.879 230.664,218.979C230.664,216.779 229.664,214.179 226.664,211.279C223.664,208.279 218.664,206.379 212.664,205.579C211.664,205.479 210.664,205.479 210.664,205.479C209.664,205.279 209.664,205.279 208.664,205.279C207.664,205.179 205.664,204.979 204.664,204.779C207.664,195.479 208.664,187.279 208.664,180.079C208.664,170.079 206.664,163.079 202.664,157.079C198.664,151.079 194.664,148.079 189.664,147.079C188.664,148.079 188.664,148.079 188.664,149.079C193.664,151.079 198.664,155.079 201.664,161.079C204.664,168.079 205.664,174.079 205.664,181.079C205.664,186.679 204.664,194.979 200.664,205.579C196.664,207.179 192.664,210.879 189.664,216.679C189.664,217.579 189.664,218.079 190.664,218.079C190.664,218.079 191.664,217.179 192.664,215.479C194.664,213.779 195.664,212.079 197.664,210.379C200.664,208.679 202.664,207.779 205.664,207.779C210.664,207.779 215.664,208.479 218.664,209.879C222.664,211.179 224.664,212.579 225.664,214.179C226.664,215.679 227.664,217.079 228.664,218.379C228.664,219.679 229.664,220.279 229.664,220.279M137.664,75.279C136.664,74.279 136.664,72.279 136.664,70.279C136.664,66.279 136.664,64.279 138.664,61.279C140.664,59.279 142.664,58.279 144.664,58.279C147.664,58.279 149.664,60.279 151.664,62.279C152.664,65.279 153.664,67.279 153.664,70.279C153.664,75.279 151.664,78.279 147.664,79.279C147.664,79.279 148.664,80.279 149.664,80.279C151.664,80.279 152.664,81.279 154.664,82.279C155.664,76.279 156.664,72.279 156.664,67.279C156.664,61.279 155.664,57.279 153.664,54.279C150.664,51.279 147.664,50.279 143.664,50.279C140.664,50.279 137.664,51.279 134.664,53.279C132.664,56.279 131.664,58.279 131.664,61.279C131.664,66.279 132.664,70.279 134.664,74.279C135.664,74.279 136.664,75.279 137.664,75.279M149.664,91.279C136.664,100.279 126.664,104.279 118.664,104.279C111.664,104.279 104.664,101.279 98.664,96.279C99.664,98.279 100.664,100.279 101.664,101.279L107.664,107.279C111.664,111.279 116.664,113.279 121.664,113.279C128.664,113.279 136.664,109.279 146.664,102.279L155.664,96.279C157.664,94.279 159.664,92.279 159.664,89.279C159.664,88.279 159.664,87.279 158.664,87.279C157.664,85.279 152.664,82.279 142.664,79.279C133.664,75.279 126.664,73.279 122.664,73.279C119.664,73.279 114.664,75.279 107.664,79.279C101.664,83.279 97.664,87.279 97.664,91.279C97.664,91.279 98.664,92.279 99.664,94.279C105.664,99.279 111.664,102.279 117.664,102.279C125.664,102.279 135.664,98.279 148.664,88.279L148.664,90.279C149.664,90.279 149.664,91.279 149.664,91.279M172.664,293.279C176.664,300.799 183.664,304.579 191.664,304.579C193.664,304.579 195.664,304.279 197.664,303.679C199.664,303.279 201.664,302.579 202.664,301.779C203.664,301.079 204.664,300.379 205.664,299.579C207.664,298.879 207.664,298.379 208.664,297.879L225.664,283.179C229.664,279.989 233.664,277.199 238.664,274.779C242.664,272.379 246.664,270.779 248.664,269.879C251.664,269.079 253.664,267.879 255.664,266.279C256.664,264.779 257.664,262.879 257.664,260.479C257.664,257.579 255.664,255.379 253.664,253.779C251.664,252.179 249.664,251.079 247.664,250.379C245.664,249.679 243.664,248.079 240.664,245.379C238.664,242.779 236.664,239.179 235.664,234.479L234.664,228.679C233.664,225.979 233.664,223.979 232.664,222.879C232.664,222.579 232.664,222.479 231.664,222.479C230.664,222.479 228.664,223.379 227.664,225.079C225.664,226.779 223.664,228.679 221.664,230.679C220.664,232.679 217.664,234.479 215.664,236.179C212.664,237.879 209.664,238.779 207.664,238.779C199.664,238.779 195.664,236.579 192.664,232.279C190.664,229.079 189.664,225.379 188.664,221.179C186.664,219.479 185.664,218.579 183.664,218.579C178.664,218.579 176.664,223.779 176.664,234.279L176.664,265.379C176.664,266.279 175.664,268.279 175.664,271.379C174.664,274.479 174.664,277.999 174.664,281.979L172.664,293.079L172.664,293.249M27.664,287.959C36.964,289.319 47.664,292.229 59.764,296.669C71.864,301.069 79.264,303.369 81.964,303.369C88.964,303.369 94.764,300.269 99.564,294.279C100.564,292.339 100.564,290.059 100.564,287.439C100.564,277.989 94.864,266.039 83.464,251.539L76.664,242.439C75.264,240.539 73.564,237.639 71.364,233.739C69.264,229.839 67.364,226.839 65.864,224.739C64.564,222.439 62.464,220.139 59.764,217.839C57.164,215.539 54.164,214.039 50.864,213.239C46.664,214.039 43.764,215.439 42.364,217.339C40.964,219.239 40.164,221.339 39.964,223.539C39.664,225.639 39.064,227.039 38.064,227.739C37.064,228.339 35.364,228.839 33.064,229.339C32.564,229.339 31.664,229.339 30.364,229.439L27.664,229.439C22.364,229.439 18.764,230.039 16.864,231.039C14.364,233.939 13.064,237.239 13.064,240.739C13.064,242.339 13.464,245.039 14.264,248.839C15.064,252.539 15.464,255.539 15.464,257.639C15.464,261.739 14.264,265.839 11.764,269.939C9.264,274.239 7.964,277.439 7.964,279.719C8.964,283.599 15.564,286.329 27.664,287.929M60.964,197.029C60.964,190.129 62.764,182.529 66.464,173.529C70.064,164.529 73.664,158.529 77.164,154.529C76.964,153.529 76.464,153.529 75.664,153.529L74.664,152.529C71.764,155.529 68.264,162.529 64.064,172.529C59.864,181.529 57.664,189.829 57.664,195.929C57.664,200.429 58.764,204.329 60.764,207.729C62.964,211.029 68.264,215.829 76.664,221.929L87.264,228.829C98.564,238.629 104.564,245.429 104.564,249.429C104.564,251.529 103.564,253.629 100.564,255.929C98.564,258.329 95.864,259.529 93.564,259.529C93.364,259.529 93.264,259.729 93.264,260.229C93.264,260.329 94.264,262.329 96.364,266.229C100.564,271.929 109.564,274.729 121.564,274.729C143.564,274.729 160.564,265.729 173.564,247.729C173.564,242.729 173.564,239.629 172.564,238.329L172.564,234.629C172.564,228.129 173.564,223.229 175.564,220.029C177.564,216.829 179.564,215.329 182.564,215.329C184.564,215.329 186.564,216.029 188.564,217.529C189.564,209.829 189.564,203.129 189.564,197.129C189.564,188.029 189.564,180.529 187.564,173.529C186.564,167.529 184.564,162.529 182.564,158.529L176.564,149.529C174.564,146.529 173.564,143.529 171.564,140.529C170.564,136.529 169.564,133.529 169.564,128.529C166.564,123.529 164.564,118.529 161.564,113.529C159.564,108.529 157.564,103.529 155.564,99.529L146.564,106.529C136.564,113.529 128.564,116.529 121.564,116.529C115.564,116.529 110.564,115.529 107.564,111.529L101.564,106.529C101.564,109.529 100.564,113.529 98.564,117.529L92.264,129.529C89.464,136.529 87.964,140.529 87.664,143.529C87.264,145.529 86.964,147.529 86.764,147.529L79.264,162.529C71.164,177.529 67.064,191.429 67.064,202.929C67.064,205.229 67.264,207.629 67.664,210.029C63.164,206.929 60.964,202.629 60.964,197.029M132.564,291.629C119.564,291.629 109.564,293.389 102.564,296.879L102.564,296.579C97.564,302.579 91.964,305.679 84.164,305.679C79.264,305.679 71.564,303.779 61.164,299.979C50.664,296.379 41.364,293.619 33.264,291.799C32.464,291.569 30.664,291.229 27.764,290.769C24.964,290.319 22.364,289.859 20.064,289.399C17.964,288.949 15.564,288.269 12.964,287.349C10.464,286.559 8.464,285.529 6.964,284.279C5.584,283.019 4.904,281.599 4.904,280.009C4.904,278.409 5.244,276.699 5.924,274.879C6.564,273.779 7.264,272.679 7.964,271.679C8.664,270.579 9.264,269.579 9.664,268.579C10.264,267.679 10.664,266.779 11.064,265.779C11.464,264.879 11.864,263.979 12.064,262.879C12.264,261.879 12.464,260.879 12.464,259.879C12.464,258.879 12.064,255.879 11.264,250.579C10.464,245.379 10.064,242.079 10.064,240.679C10.064,236.279 11.064,232.779 13.264,230.279C15.464,227.779 17.564,226.479 19.764,226.479L31.264,226.479C32.164,226.479 33.564,225.979 35.664,224.779C36.364,223.179 36.964,221.879 37.364,220.679C37.864,219.479 38.064,218.579 38.264,218.179C38.464,217.579 38.664,216.979 38.864,216.479C39.264,215.779 39.764,214.979 40.464,214.179C39.664,213.179 39.264,211.879 39.264,210.279C39.264,209.179 39.264,208.179 39.464,207.579C39.464,203.979 41.164,198.879 44.764,192.179L48.264,185.879C51.164,180.479 53.364,176.479 54.964,172.479C56.664,168.479 58.464,162.479 60.464,154.479C62.064,147.479 65.864,140.479 71.864,133.479L79.364,124.479C84.564,118.479 87.964,113.479 89.864,109.479C91.764,105.479 92.764,100.479 92.764,96.479C92.764,94.479 92.264,88.479 91.164,78.479C90.164,68.479 89.664,58.479 89.664,49.479C89.664,42.479 90.264,37.479 91.564,32.479C92.864,27.479 95.164,22.479 98.564,18.479C101.564,14.479 105.564,10.479 111.564,8.479C117.564,6.479 124.564,5.479 132.564,5.479C135.564,5.479 138.564,5.479 141.564,6.479C144.564,6.479 148.564,7.479 153.564,9.479C157.564,11.479 161.564,13.479 164.564,16.479C168.564,19.479 171.564,24.479 174.564,29.479C176.564,35.479 178.564,41.479 179.564,49.479C180.564,54.479 180.564,59.479 181.564,66.479C181.564,72.479 182.564,76.479 182.564,79.479C183.564,82.479 183.564,86.479 184.564,91.479C185.564,95.479 186.564,99.479 188.564,102.479C190.564,106.479 192.564,110.479 195.564,114.479C198.564,119.479 202.564,124.479 206.564,130.479C215.564,140.479 222.564,151.479 226.564,162.479C231.564,172.479 234.564,185.479 234.564,199.379C234.564,206.279 233.564,212.979 231.564,219.479C233.564,219.479 234.564,220.279 235.564,221.679C236.564,223.079 237.564,226.079 238.564,230.779L239.564,238.179C240.564,240.379 241.564,242.479 244.564,244.279C246.564,246.079 248.564,247.579 251.564,248.779C253.564,249.779 256.564,251.179 258.564,252.979C260.564,254.979 261.564,257.079 261.564,259.279C261.564,262.679 260.564,265.179 258.564,266.979C256.564,268.979 254.564,270.379 251.564,271.279C249.564,272.279 245.564,274.279 239.564,277.099C234.564,280.059 229.564,283.649 224.564,287.899L214.564,296.409C210.564,300.309 206.564,303.109 203.564,304.809C200.564,306.609 196.564,307.509 192.564,307.509L185.564,306.709C177.564,304.609 172.564,300.609 169.564,294.509C153.564,292.569 140.564,291.609 132.564,291.609" style="fill-rule:nonzero;"/>
    </g>
</svg>
